<?xml version="1.0" encoding="UTF-8"?>
<svg enable-background="new 0 0 2000 2000" version="1.1" viewBox="0 0 2000 2000" xmlns="http://www.w3.org/2000/svg">
 <path d="m1593.7 1504.5h-139.87c-39.832 0-72.125-32.245-72.125-72.077 0-39.827 32.293-72.076 72.125-72.076h48.078c39.828 0 72.121-32.245 72.121-72.077s-32.293-72.077-72.121-72.077h-288.48c-39.831 0-72.123-32.245-72.123-72.077 0-39.831 32.292-72.077 72.123-72.077h485.18c39.827 0 72.119-32.245 72.119-72.077s-32.292-72.077-72.119-72.077h-345.31c-39.828 0-72.117-32.25-72.117-72.077 0-39.832 32.289-72.077 72.117-72.077h131.13c39.832 0 72.12-32.246 72.12-72.077 0-39.832-32.288-72.077-72.12-72.077h-288.48c-39.827 0-72.12-32.246-72.12-72.078s32.293-72.077 72.12-72.077h43.708c39.831 0 72.123-32.245 72.123-72.077 0-39.828-32.292-72.077-72.123-72.077h-437.1c-39.828 0-72.12 32.249-72.12 72.077 0 39.832 32.292 72.077 72.12 72.077h26.227c39.832 0 72.121 32.246 72.121 72.077s-32.289 72.078-72.121 72.078h-48.083c-39.828 0-72.12 32.245-72.12 72.077 0 39.831 32.292 72.077 72.12 72.077h-8.74c39.828 0 72.12 32.246 72.12 72.077 0 39.828-32.292 72.077-72.12 72.077h-476.44c-39.832 0-72.124 32.245-72.124 72.077s32.292 72.077 72.124 72.077h122.38c39.828 0 72.12 32.246 72.12 72.077 0 39.832-32.292 72.077-72.12 72.077h-17.483c-39.832 0-72.124 32.245-72.124 72.077s32.292 72.077 72.124 72.077h327.82c39.828 0 72.12 32.249 72.12 72.076 0 39.832-32.292 72.077-72.12 72.077h-166.1c-39.832 0-72.124 32.246-72.124 72.078 0 39.831 32.292 72.076 72.124 72.076h1031.5c39.831 0 72.124-32.245 72.124-72.076 1e-3 -39.832-32.292-72.078-72.123-72.078z" fill="#A7CFE8"/>
 <polygon points="438.75 926.19 311.52 1080.4 323.53 1089.8 450.39 936.79" fill="#9DB6C9"/>
 <path d="m323.52 1093.8c-0.86 0-1.724-0.277-2.456-0.845l-12.013-9.342c-0.852-0.665-1.4-1.646-1.521-2.722-0.117-1.075 0.204-2.151 0.892-2.988l127.24-154.23c0.697-0.845 1.713-1.365 2.804-1.443s2.17 0.297 2.98 1.032l11.637 10.598c1.584 1.438 1.751 3.871 0.387 5.518l-126.86 152.97c-0.789 0.949-1.931 1.446-3.085 1.446zm-6.295-13.976l5.694 4.427 121.95-147.04-5.701-5.193-121.94 147.81z" fill="#305D8A"/>
 <polygon points="314.27 1133.8 389.6 1280.3 405.62 1280.3 327.04 1126.8" fill="#9DB6C9"/>
 <path d="m405.62 1284.3h-16.017c-1.501 0-2.874-0.838-3.563-2.175l-75.331-146.49c-0.989-1.928-0.266-4.298 1.635-5.342l12.768-7.008c0.954-0.516 2.061-0.633 3.105-0.316 1.032 0.316 1.892 1.04 2.389 2.002l78.58 153.5c0.634 1.243 0.579 2.726-0.149 3.914-0.726 1.189-2.021 1.917-3.417 1.917zm-13.573-8.009h7.023l-73.716-144-5.74 3.147 72.433 140.86z" fill="#305D8A"/>
 <path d="m440.17 807.52c8.595 8.603 8.595 22.547 0 31.146-8.604 8.599-22.548 8.599-31.15 0-8.596-8.599-8.596-22.543 0-31.146 8.602-8.599 22.546-8.599 31.15 0z" fill="#9DB6C9"/>
 <path d="m424.59 849.12c-6.953 0-13.491-2.706-18.407-7.622-10.144-10.147-10.144-26.657 0-36.809 4.916-4.916 11.454-7.622 18.407-7.622s13.491 2.706 18.406 7.622c10.144 10.151 10.144 26.661 0 36.809-4.916 4.916-11.454 7.622-18.406 7.622zm0-44.043c-4.814 0-9.338 1.873-12.745 5.275-7.019 7.027-7.019 18.461 0 25.484 3.406 3.402 7.931 5.275 12.745 5.275 4.813 0 9.338-1.874 12.744-5.275 7.02-7.023 7.02-18.457 0-25.484-3.406-3.402-7.931-5.275-12.744-5.275z" fill="#305D8A"/>
 <path d="m562.38 906.16c15.11 15.114 15.11 39.617 0 54.73-15.11 15.106-39.617 15.11-54.73 0-15.11-15.114-15.106-39.621 0-54.73 15.114-15.11 39.62-15.11 54.73 0z" fill="#fff"/>
 <path d="m535.02 976.22c-11.407 0-22.133-4.442-30.196-12.505-16.647-16.651-16.647-43.742 0-60.393 8.067-8.063 18.789-12.505 30.196-12.505 11.411 0 22.133 4.442 30.196 12.505 16.647 16.651 16.647 43.742 0 60.393-8.063 8.063-18.789 12.505-30.196 12.505zm0-77.395c-9.268 0-17.98 3.609-24.534 10.159-13.522 13.526-13.522 35.542 0 49.068 6.554 6.55 15.266 10.16 24.534 10.16s17.98-3.609 24.534-10.16c13.522-13.526 13.522-35.542 0-49.068-6.55-6.55-15.262-10.159-24.534-10.159z" fill="#305D8A"/>
 <rect transform="matrix(.7071 -.7071 .7071 .7071 -459.99 546.94)" x="390.21" y="814.75" width="80.086" height="28.027" fill="#9DB6C9"/>
 <path d="m411.85 870.99c-1.024 0-2.049-0.391-2.831-1.173l-19.818-19.818c-1.564-1.564-1.564-4.098 0-5.662l56.631-56.631c0.751-0.75 1.768-1.173 2.831-1.173 1.064 0 2.08 0.423 2.831 1.173l19.818 19.822c1.564 1.564 1.564 4.098 0 5.662l-56.631 56.627c-0.782 0.782-1.806 1.173-2.831 1.173zm-14.156-23.822l14.156 14.156 50.969-50.965-14.156-14.16-50.969 50.969z" fill="#305D8A"/>
 <polygon points="598.73 895.3 496.79 997.23 392.03 869.81 471.31 790.53" fill="#9DB6C9"/>
 <path d="m496.79 1e3h-0.195c-1.126 0-2.178 0.032-2.897-0.844l-104.76-127.11c-1.311-1.591-1.197-3.758 0.262-5.216l79.28-79.206c1.462-1.455 3.793-1.529 5.373-0.223l127.42 104.78c0.872 0.719 1.404 1.779 1.459 2.905 0.054 1.134-0.372 2.237-1.169 3.035l-101.93 101.32c-0.751 0.755-1.772 0.559-2.832 0.559zm-99.363-129.92l99.653 121.2 95.692-95.692-121.2-99.653-74.141 74.141z" fill="#305D8A"/>
 <g opacity=".2">
  <polygon points="544.93 943.43 592.6 895.77 471.58 795.94 434.5 833" fill="#9DB6C9"/>
 </g>
 <g opacity=".2">
  <rect transform="matrix(.7071 -.7071 .7071 .7071 -445.5 548.01)" x="420.73" y="807.77" width="36.04" height="8.008" fill="#9DB6C9"/>
 </g>
 <g opacity=".2">
  <path d="m427.9 805.64s-11.571-3.136-19.591 8.932c0 0 6.14-1.146 9.209 1.45l10.382-10.382z" fill="#9DB6C9"/>
 </g>
 <g opacity=".2">
  <polyline points="530.41 968.8 536.44 968.92 567.58 937.77 570.41 934.94 570.17 929.52 530.77 968.92" fill="#9DB6C9"/>
 </g>
 <path d="m342.42 1105.3c0 15.721-12.744 28.461-28.464 28.461s-28.464-12.74-28.464-28.461c0-15.724 12.744-28.468 28.464-28.468s28.464 12.744 28.464 28.468z" fill="#9DB6C9"/>
 <path d="m313.95 1137.8c-17.902 0-32.468-14.563-32.468-32.465 0-17.905 14.566-32.472 32.468-32.472s32.468 14.566 32.468 32.472c0 17.902-14.566 32.465-32.468 32.465zm0-56.928c-13.487 0-24.459 10.972-24.459 24.463 0 13.484 10.973 24.456 24.459 24.456s24.46-10.972 24.46-24.456c0-13.492-10.973-24.463-24.46-24.463z" fill="#305D8A"/>
 <g opacity=".2">
  <path d="m313.52 1080.9v48.919c12.013 0 24.459-10.949 24.459-24.456 1e-3 -13.514-12.446-24.463-24.459-24.463z" fill="#9DB6C9"/>
 </g>
 <path d="m327.04 1105.3c0 7.223-5.858 13.081-13.084 13.081s-13.084-5.858-13.084-13.081c0-7.229 5.858-13.088 13.084-13.088s13.084 5.858 13.084 13.088z" fill="#9DB6C9"/>
 <path d="m313.95 1122.4c-9.424 0-17.088-7.664-17.088-17.085 0-9.424 7.665-17.092 17.088-17.092 9.424 0 17.089 7.668 17.089 17.092 0 9.421-7.665 17.085-17.089 17.085zm0-26.168c-5.005 0-9.08 4.074-9.08 9.083 0 5.006 4.075 9.077 9.08 9.077s9.08-4.071 9.08-9.077c0-5.009-4.075-9.083-9.08-9.083z" fill="#305D8A"/>
 <path d="m484.19 1364.4c0.97-4.946 1.509-10.05 1.509-15.281 0-43.531-35.288-78.819-78.819-78.819s-78.822 35.288-78.822 78.819c0 5.231 0.536 10.335 1.509 15.281h154.62z" fill="#9DB6C9"/>
 <path d="m484.19 1368.4h-154.62c-1.912 0-3.558-1.354-3.93-3.23-1.052-5.342-1.584-10.745-1.584-16.056 0-45.671 37.157-82.823 82.827-82.823s82.823 37.152 82.823 82.823c0 5.29-0.532 10.69-1.583 16.052-0.368 1.876-2.014 3.234-3.931 3.234zm-151.26-8.009h147.89c0.579-3.782 0.872-7.563 0.872-11.277 0-41.251-33.563-74.814-74.815-74.814-41.255 0-74.818 33.563-74.818 74.814 0 3.726 0.293 7.507 0.868 11.277z" fill="#305D8A"/>
 <g opacity=".2">
  <path d="m406.88 1270.3c-13.292 0-25.793 3.324-36.781 9.131 4.161-0.677 8.404-1.123 12.756-1.123 43.531 0 78.818 35.288 78.818 78.819 0 2.456-0.14 4.876-0.367 7.273h22.884c0.97-4.946 1.509-10.05 1.509-15.281 0-43.531-35.288-78.819-78.819-78.819z" fill="#9DB6C9"/>
 </g>
 <g opacity=".2">
  <polygon points="440.99 935.27 325.75 1075.1 329.21 1076.9 443.49 938.61" fill="#9DB6C9"/>
 </g>
 <g opacity=".2">
  <polygon points="326.87 1135.1 323.7 1136.5 391.44 1268.3 395.11 1268.3" fill="#9DB6C9"/>
 </g>
 <path d="m1584.7 942.83c-7.085 14.003-22.727 20.35-34.939 14.167-12.203-6.174-16.36-22.54-9.271-36.543 7.086-14.007 22.729-20.35 34.936-14.171 12.211 6.179 16.361 22.539 9.274 36.547z" fill="#AFDDB5"/>
 <path d="m1559.7 963.36c-4.169 0-8.142-0.938-11.814-2.796-6.948-3.52-11.898-9.882-13.939-17.925-1.991-7.841-0.959-16.365 2.904-24.002 5.757-11.375 16.948-18.731 28.512-18.731 4.168 0 8.142 0.942 11.806 2.796 14.159 7.164 19.114 25.973 11.042 41.927-5.76 11.38-16.948 18.731-28.511 18.731zm5.662-55.446c-8.571 0-16.956 5.631-21.363 14.339-2.991 5.909-3.805 12.451-2.291 18.415 1.463 5.764 4.942 10.292 9.796 12.748 2.538 1.287 5.295 1.936 8.196 1.936 8.571 0 16.955-5.627 21.362-14.335 6.081-12.017 2.71-25.997-7.509-31.166-2.536-1.284-5.293-1.937-8.191-1.937z" fill="#305D8A"/>
 <g opacity=".38">
  <path d="m1575.4 906.28c-0.499-0.254-1.016-0.454-1.524-0.665 3.223 7.418 3.074 16.732-1.212 25.199-6.796 13.429-21.448 19.783-33.411 14.833 2.111 4.856 5.655 8.908 10.483 11.348 12.213 6.183 27.854-0.164 34.939-14.167 7.088-14.009 2.938-30.369-9.275-36.548z" fill="#9DB6C9"/>
 </g>
 <path d="m1562.8 954.83c16.212 30.892 7.625 67.334-19.177 81.399-26.811 14.065-61.676 0.422-77.884-30.47-16.213-30.889-7.63-67.33 19.177-81.4 26.806-14.065 61.672-0.421 77.884 30.471z" fill="#AFDDB5"/>
 <path d="m1521 1045.8c-23.505 0-46.554-14.978-58.715-38.155-8.29-15.793-10.738-33.473-6.894-49.787 3.891-16.518 13.748-29.668 27.756-37.02 7.586-3.981 15.853-5.999 24.572-5.999 23.506 0 46.555 14.977 58.72 38.154 8.286 15.794 10.738 33.478 6.894 49.788-3.895 16.521-13.749 29.669-27.756 37.021-7.586 3.98-15.856 5.998-24.577 5.998zm-13.28-122.95c-7.409 0-14.425 1.712-20.85 5.083-11.923 6.257-20.335 17.539-23.686 31.765-3.398 14.434-1.201 30.142 6.194 44.227 10.793 20.573 31.057 33.868 51.621 33.868 7.41 0 14.43-1.712 20.854-5.083 11.919-6.253 20.331-17.535 23.682-31.761 3.402-14.437 1.205-30.146-6.19-44.23-10.796-20.573-31.06-33.869-51.625-33.869z" fill="#305D8A"/>
 <g opacity=".38">
  <path d="m1562.8 954.83c-16.212-30.893-51.078-44.536-77.884-30.47-1.014 0.532-1.943 1.153-2.906 1.748 22.748 1.999 44.153 19.529 52.447 45.564 8.725 27.389 0.188 55.517-19.208 69.727 9.698 1.057 19.478-0.5 28.374-5.169 26.802-14.066 35.389-50.508 19.177-81.4z" fill="#9DB6C9"/>
 </g>
 <ellipse transform="matrix(.9479 .3187 -.3187 .9479 432 -409.96)" cx="1468.8" cy="1115.1" rx="34.036" ry="23.024" fill="#AFDDB5"/>
 <path d="m1476.5 1143.5c-5.419 0-10.93-0.932-16.376-2.762-20.222-6.8-32.276-23.377-27.448-37.743 3.372-10.03 14.215-16.26 28.293-16.26 5.419 0 10.93 0.931 16.377 2.761 20.221 6.801 32.275 23.377 27.447 37.744-3.372 10.029-14.215 16.26-28.293 16.26zm-15.532-48.756c-10.371 0-18.493 4.238-20.698 10.801-3.289 9.775 6.972 22.414 22.402 27.6 4.626 1.557 9.275 2.346 13.827 2.346 10.371 0 18.493-4.238 20.698-10.8 3.289-9.776-6.973-22.415-22.402-27.601-4.625-1.556-9.275-2.346-13.827-2.346z" fill="#305D8A"/>
 <g opacity=".38">
  <path d="m1476.1 1093.3c-17.816-5.99-35.546-1.075-39.597 10.977-0.544 1.619-0.794 3.289-0.81 4.975 7.637-3.188 17.992-3.434 28.393 0.066 15.424 5.186 25.838 16.842 25.735 27.697 5.443-2.272 9.519-6.029 11.203-11.043 4.052-12.052-7.105-26.682-24.924-32.672z" fill="#9DB6C9"/>
 </g>
 <path d="m1684.6 1015c8.149 12.361-0.055 32.156-18.332 44.212-18.273 12.056-39.703 11.802-47.855-0.56-8.149-12.36 0.055-32.158 18.328-44.211 18.281-12.056 39.702-11.806 47.859 0.559z" fill="#AFDDB5"/>
 <path d="m1639 1072.1c-10.637 0-19.126-3.993-23.909-11.238-9.354-14.191-0.621-36.512 19.466-49.76 9.331-6.151 19.807-9.542 29.501-9.542 10.637 0 19.126 3.993 23.908 11.238 9.354 14.188 0.618 36.508-19.471 49.76-9.326 6.152-19.802 9.542-29.495 9.542zm25.057-62.531c-8.142 0-17.054 2.917-25.09 8.22-16.126 10.633-23.998 28.339-17.189 38.662 3.249 4.928 9.365 7.641 17.222 7.641 8.145 0 17.053-2.921 25.085-8.22 16.127-10.637 23.998-28.343 17.194-38.662-3.25-4.928-9.366-7.641-17.222-7.641z" fill="#305D8A"/>
 <g opacity=".38">
  <path d="m1684.6 1015c-1.857-2.815-4.427-4.97-7.469-6.526 4.356 13.93-8.481 30.725-28.983 37.717-11.982 4.087-23.933 3.902-32.817 0.324-0.21 4.419 0.743 8.587 3.082 12.138 8.152 12.361 29.582 12.615 47.855 0.56 18.277-12.057 26.481-31.852 18.332-44.213z" fill="#9DB6C9"/>
 </g>
 <ellipse cx="1562.9" cy="1105.1" rx="88.094" ry="107.11" fill="#AFDDB5"/>
 <path d="m1562.9 1216.2c-50.785 0-92.099-49.847-92.099-111.12s41.313-111.12 92.099-111.12 92.099 49.846 92.099 111.12-41.314 111.12-92.099 111.12zm0-214.23c-46.366 0-84.09 46.257-84.09 103.11 0 56.854 37.724 103.11 84.09 103.11s84.09-46.256 84.09-103.11c-1e-3 -56.853-37.724-103.11-84.09-103.11z" fill="#305D8A"/>
 <g opacity=".38">
  <path d="m1562.9 998c-6.179 0-12.2 0.782-18.019 2.252 40.011 10.113 70.074 53.213 70.074 104.86s-30.063 94.75-70.074 104.86c5.818 1.471 11.84 2.252 18.019 2.252 48.654 0 88.094-47.957 88.094-107.11s-39.44-107.11-88.094-107.11z" fill="#9DB6C9"/>
 </g>
 <path d="m1667 1341.7c0 12.537-10.167 22.7-22.704 22.7h-158.81c-12.536 0-22.704-10.163-22.704-22.7l-20.021-146.81c0-12.536 10.168-22.699 22.704-22.699h198.85c12.537 0 22.704 10.163 22.704 22.699l-20.022 146.81z" fill="#E4C6AA"/>
 <path d="m1644.3 1368.4h-158.81c-14.633 0-26.556-11.825-26.708-26.423l-19.986-146.55c-0.023-0.176-0.035-0.359-0.035-0.54 0-14.727 11.981-26.704 26.708-26.704h198.85c14.727 0 26.708 11.978 26.708 26.704 0 0.181-0.012 0.364-0.035 0.54l-19.985 146.55c-0.154 14.597-12.077 26.423-26.71 26.423zm-197.53-173.77l19.986 146.52c0.023 0.176 0.035 0.359 0.035 0.539 0 10.309 8.388 18.696 18.699 18.696h158.81c10.313 0 18.7-8.388 18.7-18.696 0-0.18 0.011-0.363 0.035-0.539l19.986-146.52c-0.141-10.191-8.475-18.438-18.7-18.438h-198.85c-10.225-1e-3 -18.558 8.247-18.698 18.438z" fill="#305D8A"/>
 <g opacity=".38">
  <path d="m1664.3 1172.2h-20.021c12.537 0 22.704 10.163 22.704 22.699l-20.021 146.81c0 12.537-10.167 22.7-22.704 22.7h20.021c12.537 0 22.704-10.163 22.704-22.7l20.021-146.81c0-12.536-10.167-22.699-22.704-22.699z" fill="#AA9E80"/>
 </g>
 <path d="m1398.7 1309.7c0 12.537-10.167 22.7-22.704 22.7h-735.43c-12.537 0-22.704-10.163-22.704-22.7v-495.18c0-12.537 10.167-22.7 22.704-22.7h735.43c12.537 0 22.704 10.163 22.704 22.7v495.18z" fill="#fff"/>
 <path d="m1376 1336.4h-735.43c-14.727 0-26.708-11.979-26.708-26.705v-495.18c0-14.727 11.981-26.705 26.708-26.705h735.43c14.727 0 26.709 11.978 26.709 26.705v495.18c1e-3 14.726-11.982 26.704-26.708 26.704zm-735.43-540.58c-10.312 0-18.7 8.388-18.7 18.696v495.18c0 10.308 8.388 18.696 18.7 18.696h735.43c10.312 0 18.7-8.389 18.7-18.696v-495.18c0-10.308-8.389-18.696-18.7-18.696h-735.43z" fill="#305D8A"/>
 <g opacity=".2">
  <path d="m1372 791.78h-7.328c9.952 0 18.02 8.067 18.02 18.019v490.52h12.013v-485.84c-1e-3 -12.538-10.168-22.7-22.705-22.7z" fill="#9DB6C9"/>
 </g>
 <g opacity=".2">
  <path d="m1350.6 1189.5c0 12.537-10.167 22.699-22.704 22.699h-639.32c-12.537 0-22.704-10.162-22.704-22.699v-343.02c0-12.537 10.167-22.7 22.704-22.7h639.32c12.537 0 22.704 10.164 22.704 22.7v343.02z" fill="#9DB6C9"/>
 </g>
 <path d="m1350.6 1301.6c0 12.536-10.167 22.7-22.704 22.7h-639.32c-12.537 0-22.704-10.164-22.704-22.7v-443.12c0-12.537 10.167-22.7 22.704-22.7h639.32c12.537 0 22.704 10.163 22.704 22.7v443.12z" fill="#EFEFEF"/>
 <path d="m1327.9 1328.4h-639.32c-14.727 0-26.708-11.978-26.708-26.704v-443.12c0-14.727 11.981-26.704 26.708-26.704h639.32c14.727 0 26.708 11.978 26.708 26.704v443.12c0 14.727-11.982 26.705-26.708 26.705zm-639.32-488.52c-10.312 0-18.699 8.388-18.699 18.695v443.12c0 10.308 8.388 18.695 18.699 18.695h639.32c10.312 0 18.699-8.388 18.699-18.695v-443.12c0-10.308-8.388-18.695-18.699-18.695h-639.32z" fill="#305D8A"/>
 <g opacity=".41">
  <path d="m1326.9 839.83h-432.27l451.98 316.34v-293.64c0-17.022-8.591-22.7-19.709-22.7z" fill="#fff"/>
 </g>
 <path d="m1533.6 1304.3h-1046.7c-12.537 0-18.289 10.691-14.695 22.7 1.196 4.005 3.645 13.3 4.677 17.347 3.101 12.146 13.499 20.018 26.036 20.018h1014.7c12.537 0 22.935-7.872 26.036-20.018 1.032-4.047 3.48-13.342 4.677-17.347 3.593-12.008-2.159-22.7-14.696-22.7z" fill="#fff"/>
 <path d="m1517.6 1368.4h-1014.7c-14.375 0-26.399-9.256-29.915-23.033-0.993-3.887-3.449-13.226-4.634-17.19-2.296-7.66-1.333-15.117 2.639-20.447 3.555-4.774 9.198-7.402 15.892-7.402h1046.7c6.694 0 12.337 2.628 15.892 7.402 3.974 5.33 4.936 12.787 2.64 20.451-1.185 3.961-3.641 13.3-4.634 17.187-3.514 13.776-15.538 23.032-29.914 23.032zm-1030.7-60.065c-4.161 0-7.434 1.443-9.471 4.177-2.444 3.28-2.948 8.156-1.388 13.369 1.232 4.129 3.684 13.44 4.72 17.507 2.64 10.327 11.337 17.003 22.157 17.003h1014.7c10.821 0 19.518-6.676 22.157-17.003 1.036-4.066 3.488-13.378 4.72-17.503 1.561-5.217 1.056-10.093-1.388-13.373-2.038-2.733-5.311-4.177-9.472-4.177h-1046.7z" fill="#305D8A"/>
 <g opacity=".2">
  <path d="m1076.9 1304.3h-178.72v13.339c0 12.537 10.167 22.7 22.704 22.7h174.83c12.536 0 22.703-10.163 22.703-22.7v-13.339h-41.517z" fill="#9DB6C9"/>
 </g>
 <path d="m1076.9 1304.3h-174.54c1.329 11.271 10.902 20.022 22.532 20.022h166.82c11.63 0 21.202-8.752 22.532-20.022h-37.342z" fill="#9DB6C9"/>
 <path d="m1091.7 1328.4h-166.82c-13.526 0-24.925-10.129-26.509-23.557-0.133-1.135 0.223-2.276 0.985-3.129 0.759-0.855 1.85-1.345 2.992-1.345h211.88c1.142 0 2.232 0.489 2.991 1.345 0.763 0.853 1.119 1.994 0.985 3.129-1.583 13.428-12.982 23.557-26.508 23.557zm-184.28-20.022c2.702 7.085 9.561 12.013 17.456 12.013h166.82c7.896 0 14.754-4.928 17.457-12.013h-201.73z" fill="#305D8A"/>
 <g opacity=".2">
  <path d="m480.37 1348.4c4.802 7.478 13.057 12.014 22.559 12.014h1014.7c9.503 0 17.758-4.536 22.56-12.014h-1059.8z" fill="#9DB6C9"/>
 </g>
 <g opacity=".33">
  <path d="m1327.9 835.82h-639.32c-12.537 0-22.704 10.163-22.704 22.7v12.013c0-12.537 10.167-22.7 22.704-22.7h639.32c12.537 0 22.704 10.164 22.704 22.7v-12.013c0-12.537-10.167-22.7-22.704-22.7z" fill="#9DB6C9"/>
 </g>
 <g opacity=".2">
  <rect x="617.84" y="1292.3" width="764.82" height="8.009" fill="#9DB6C9"/>
 </g>
 <circle cx="1010.3" cy="812.3" r="4.505" fill="#305D8A"/>
 <g opacity=".2">
  <path d="m1366.6 791.98c0.665-0.078 1.314-0.203 2.002-0.203h-2.002v0.203z" fill="#9DB6C9"/>
 </g>
 <path d="m1771.1 1368.4h-20.021c-2.213 0-4.005-1.792-4.005-4.005s1.792-4.004 4.005-4.004h20.021c2.214 0 4.005 1.791 4.005 4.004s-1.791 4.005-4.005 4.005zm-52.055 0h-32.034c-2.214 0-4.004-1.792-4.004-4.005s1.79-4.004 4.004-4.004h32.034c2.213 0 4.004 1.791 4.004 4.004s-1.792 4.005-4.004 4.005z" fill="#305D8A"/>
 <path d="m1687 1368.4h-1309.4c-2.213 0-4.004-1.792-4.004-4.005s1.791-4.004 4.004-4.004h1309.4c2.214 0 4.004 1.791 4.004 4.004s-1.79 4.005-4.004 4.005z" fill="#305D8A"/>
 <path d="m373.62 1368.4c-2.209 0-4.024-1.792-4.024-4.005s1.771-4.004 3.985-4.004h0.039c2.213 0 4.004 1.791 4.004 4.004s-1.791 4.005-4.004 4.005zm-32.073 0h-32.035c-2.213 0-4.004-1.792-4.004-4.005s1.791-4.004 4.004-4.004h32.035c2.213 0 4.004 1.791 4.004 4.004s-1.791 4.005-4.004 4.005zm-64.068 0h-32.035c-2.213 0-4.004-1.792-4.004-4.005s1.791-4.004 4.004-4.004h32.035c2.213 0 4.004 1.791 4.004 4.004s-1.792 4.005-4.004 4.005z" fill="#305D8A"/>
 <line x1="1575" x2="1596.9" y1="935.64" y2="945.94" fill="#fff"/>
 <path d="m1596.9 949.95c-0.57 0-1.153-0.121-1.704-0.383l-21.845-10.3c-1.997-0.942-2.854-3.328-1.912-5.33 0.935-1.994 3.328-2.866 5.33-1.912l21.845 10.3c1.997 0.942 2.854 3.328 1.911 5.33-0.68 1.446-2.123 2.295-3.625 2.295z" fill="#305D8A"/>
 <line x1="1562.6" x2="1561.4" y1="904.11" y2="889.88" fill="#fff"/>
 <path d="m1562.6 908.12c-2.062 0-3.813-1.58-3.984-3.671l-1.189-14.23c-0.188-2.202 1.45-4.137 3.656-4.321 2.249-0.262 4.138 1.451 4.321 3.656l1.188 14.23c0.188 2.201-1.45 4.137-3.656 4.321-0.113 0.011-0.226 0.015-0.336 0.015z" fill="#305D8A"/>
 <line x1="1549.4" x2="1530.8" y1="918.82" y2="908.12" fill="#fff"/>
 <path d="m1549.4 922.82c-0.68 0-1.365-0.172-1.998-0.536l-18.547-10.699c-1.916-1.107-2.573-3.555-1.467-5.471 1.103-1.913 3.543-2.569 5.471-1.466l18.548 10.699c1.915 1.107 2.572 3.554 1.466 5.471-0.743 1.283-2.088 2.002-3.473 2.002z" fill="#305D8A"/>
 <line x1="1588.1" x2="1596.9" y1="918.82" y2="917.47" fill="#fff"/>
 <path d="m1588.1 922.82c-1.944 0-3.648-1.416-3.953-3.398-0.337-2.186 1.164-4.227 3.351-4.563l8.759-1.345c2.187-0.34 4.224 1.165 4.563 3.352 0.337 2.186-1.165 4.227-3.351 4.563l-8.76 1.345c-0.203 0.03-0.41 0.046-0.609 0.046z" fill="#305D8A"/>
 <line x1="1596.9" x2="1610.4" y1="1074.1" y2="1058.6" fill="#fff"/>
 <path d="m1596.9 1078.1c-0.938 0-1.881-0.328-2.639-0.993-1.662-1.459-1.831-3.989-0.372-5.65l13.546-15.455c1.458-1.666 3.996-1.822 5.65-0.371 1.662 1.458 1.83 3.989 0.371 5.651l-13.545 15.453c-0.791 0.903-1.9 1.365-3.011 1.365z" fill="#305D8A"/>
 <line x1="1665" x2="1687" y1="1041.8" y2="1058.6" fill="#fff"/>
 <path d="m1687 1062.6c-0.849 0-1.705-0.271-2.429-0.825l-22.023-16.857c-1.756-1.346-2.092-3.856-0.746-5.612 1.341-1.756 3.867-2.088 5.611-0.747l22.023 16.858c1.756 1.346 2.092 3.855 0.746 5.611-0.785 1.032-1.977 1.572-3.182 1.572z" fill="#305D8A"/>
 <line x1="1658.7" x2="1661" y1="1063.4" y2="1070.1" fill="#fff"/>
 <path d="m1661 1074.1c-1.662 0-3.215-1.043-3.786-2.701l-2.287-6.656c-0.72-2.092 0.391-4.371 2.483-5.088 2.096-0.723 4.371 0.396 5.087 2.483l2.288 6.656c0.719 2.092-0.392 4.371-2.483 5.087-0.431 0.15-0.872 0.219-1.302 0.219z" fill="#305D8A"/>
 <line x1="1639.2" x2="1633.6" y1="1021.5" y2="1001.3" fill="#fff"/>
 <path d="m1639.2 1025.5c-1.752 0-3.363-1.161-3.856-2.933l-5.591-20.135c-0.591-2.131 0.656-4.337 2.787-4.931 2.132-0.586 4.337 0.657 4.931 2.788l5.593 20.135c0.591 2.131-0.657 4.337-2.788 4.931-0.361 0.098-0.721 0.145-1.076 0.145z" fill="#305D8A"/>
 <line x1="1663" x2="1667" y1="1004" y2="996" fill="#fff"/>
 <path d="m1663 1008c-0.602 0-1.212-0.137-1.786-0.422-1.979-0.989-2.78-3.395-1.791-5.374l4.004-8.008c0.989-1.979 3.398-2.777 5.374-1.791 1.979 0.989 2.779 3.395 1.79 5.373l-4.005 8.008c-0.703 1.404-2.115 2.214-3.586 2.214z" fill="#305D8A"/>
 <line x1="1679" x2="1701" y1="1021.5" y2="1016" fill="#fff"/>
 <path d="m1679 1025.5c-1.799 0-3.433-1.221-3.883-3.043-0.532-2.146 0.778-4.316 2.925-4.848l22.023-5.451c2.144-0.521 4.317 0.777 4.849 2.924s-0.777 4.317-2.924 4.85l-22.024 5.451c-0.325 0.078-0.646 0.117-0.966 0.117z" fill="#305D8A"/>
 <line x1="1687" x2="1694.3" y1="1032.2" y2="1032.8" fill="#fff"/>
 <path d="m1694.3 1036.8c-0.113 0-0.231-4e-3 -0.348-0.016l-7.34-0.629c-2.202-0.188-3.837-2.128-3.645-4.333 0.188-2.197 2.104-3.919 4.332-3.645l7.341 0.629c2.201 0.188 3.835 2.128 3.645 4.333-0.18 2.086-1.928 3.661-3.985 3.661z" fill="#305D8A"/>
 <line x1="1498.8" x2="1502.8" y1="927.92" y2="907.9" fill="#fff"/>
 <path d="m1498.8 931.93c-0.263 0-0.523-0.023-0.79-0.078-2.166-0.434-3.574-2.542-3.14-4.712l4.004-20.021c0.434-2.17 2.53-3.594 4.712-3.14 2.166 0.434 3.574 2.542 3.141 4.712l-4.005 20.022c-0.379 1.904-2.053 3.217-3.922 3.217z" fill="#305D8A"/>
 <line x1="1481.8" x2="1472.1" y1="926.19" y2="918.82" fill="#fff"/>
 <path d="m1481.8 930.2c-0.845 0-1.694-0.266-2.417-0.817l-9.71-7.375c-1.764-1.337-2.108-3.848-0.767-5.608 1.334-1.767 3.853-2.104 5.607-0.766l9.71 7.375c1.764 1.337 2.107 3.848 0.767 5.607-0.786 1.04-1.982 1.584-3.19 1.584z" fill="#305D8A"/>
 <line x1="1481.8" x2="1457.6" y1="1010" y2="1016" fill="#fff"/>
 <path d="m1457.6 1020c-1.795 0-3.43-1.216-3.883-3.038-0.532-2.147 0.777-4.321 2.92-4.853l24.21-6.007c2.143-0.517 4.317 0.774 4.854 2.921 0.531 2.146-0.778 4.321-2.921 4.853l-24.21 6.007c-0.325 0.078-0.65 0.117-0.97 0.117z" fill="#305D8A"/>
 <line x1="1498.8" x2="1481.8" y1="980.29" y2="974.64" fill="#fff"/>
 <path d="m1498.8 984.3c-0.418 0-0.845-0.066-1.263-0.204l-16.987-5.654c-2.101-0.7-3.233-2.968-2.538-5.064 0.696-2.1 2.969-3.222 5.064-2.538l16.986 5.655c2.101 0.7 3.234 2.968 2.539 5.064-0.56 1.681-2.123 2.741-3.801 2.741z" fill="#305D8A"/>
 <line x1="1514.3" x2="1517.5" y1="952.61" y2="935.64" fill="#fff"/>
 <path d="m1514.3 956.62c-0.242 0-0.488-0.02-0.735-0.067-2.174-0.403-3.609-2.495-3.207-4.669l3.152-16.971c0.402-2.174 2.495-3.625 4.669-3.207 2.175 0.403 3.609 2.495 3.206 4.669l-3.151 16.971c-0.359 1.928-2.041 3.274-3.934 3.274z" fill="#305D8A"/>
 <line x1="1546.2" x2="1558.8" y1="955.28" y2="935.64" fill="#fff"/>
 <path d="m1546.2 959.29c-0.743 0-1.498-0.208-2.166-0.641-1.862-1.196-2.395-3.676-1.193-5.534l12.682-19.642c1.2-1.861 3.684-2.394 5.533-1.193 1.861 1.196 2.394 3.676 1.193 5.533l-12.682 19.643c-0.766 1.189-2.052 1.834-3.367 1.834z" fill="#305D8A"/>
 <line x1="1556.2" x2="1578.9" y1="974.64" y2="977.46" fill="#fff"/>
 <path d="m1578.9 981.47c-0.164 0-0.332-8e-3 -0.501-0.032l-22.692-2.827c-2.193-0.274-3.75-2.272-3.476-4.47 0.273-2.194 2.24-3.738 4.469-3.477l22.693 2.827c2.193 0.274 3.749 2.272 3.476 4.47-0.25 2.027-1.98 3.509-3.969 3.509z" fill="#305D8A"/>
 <line x1="1460.2" x2="1438.7" y1="991.68" y2="985.98" fill="#fff"/>
 <path d="m1460.2 995.69c-0.34 0-0.688-0.042-1.031-0.132l-21.465-5.698c-2.135-0.567-3.41-2.761-2.843-4.899 0.566-2.135 2.769-3.406 4.899-2.843l21.465 5.698c2.135 0.567 3.41 2.761 2.843 4.899-0.478 1.79-2.096 2.975-3.868 2.975z" fill="#305D8A"/>
 <line x1="1449.4" x2="1457.6" y1="964.63" y2="963.36" fill="#fff"/>
 <path d="m1449.4 968.63c-1.939 0-3.645-1.412-3.953-3.39-0.341-2.187 1.157-4.231 3.343-4.572l8.138-1.263c2.206-0.329 4.235 1.158 4.571 3.344 0.341 2.186-1.157 4.231-3.344 4.571l-8.137 1.264c-0.208 0.03-0.414 0.046-0.618 0.046z" fill="#305D8A"/>
 <line x1="1526.8" x2="1530.8" y1="988.83" y2="977.46" fill="#fff"/>
 <path d="m1526.8 992.84c-0.442 0-0.892-0.074-1.33-0.227-2.088-0.735-3.183-3.022-2.447-5.107l4.004-11.368c0.734-2.088 3.03-3.171 5.107-2.448 2.087 0.735 3.183 3.023 2.447 5.107l-4.005 11.368c-0.577 1.647-2.126 2.675-3.776 2.675z" fill="#305D8A"/>
 <line x1="1474.8" x2="1464.2" y1="945.94" y2="935.64" fill="#fff"/>
 <path d="m1474.8 949.95c-1.009 0-2.019-0.379-2.797-1.138l-10.569-10.3c-1.584-1.541-1.615-4.079-0.07-5.662 1.545-1.584 4.082-1.607 5.662-0.07l10.57 10.3c1.584 1.541 1.614 4.078 0.07 5.662-0.782 0.805-1.826 1.208-2.866 1.208z" fill="#305D8A"/>
 <line x1="1500.8" x2="1507.5" y1="1001.3" y2="1004" fill="#fff"/>
 <path d="m1507.5 1008c-0.497 0-1.001-0.09-1.49-0.285l-6.672-2.671c-2.053-0.825-3.05-3.156-2.229-5.209 0.825-2.053 3.159-3.046 5.208-2.229l6.672 2.671c2.053 0.825 3.051 3.155 2.229 5.208-0.629 1.565-2.131 2.515-3.718 2.515z" fill="#305D8A"/>
 <line x1="1464.2" x2="1449.4" y1="1099.4" y2="1080.1" fill="#fff"/>
 <path d="m1464.2 1103.4c-1.208 0-2.401-0.543-3.19-1.579l-14.739-19.354c-1.337-1.76-0.996-4.27 0.763-5.611 1.76-1.341 4.271-1.001 5.612 0.764l14.738 19.352c1.337 1.76 0.997 4.271-0.763 5.611-0.724 0.553-1.576 0.817-2.421 0.817z" fill="#305D8A"/>
 <line x1="1442.7" x2="1435.7" y1="1096" y2="1089.8" fill="#fff"/>
 <path d="m1442.7 1100c-0.945 0-1.896-0.332-2.659-1.009l-7.062-6.266c-1.654-1.466-1.803-3.995-0.336-5.653 1.466-1.654 4.004-1.804 5.653-0.337l7.063 6.265c1.654 1.466 1.803 3.996 0.337 5.654-0.79 0.892-1.893 1.346-2.996 1.346z" fill="#305D8A"/>
 <line x1="1449.4" x2="1431.4" y1="1115.1" y2="1122.1" fill="#fff"/>
 <path d="m1431.4 1126.1c-1.604 0-3.116-0.971-3.734-2.559-0.798-2.061 0.227-4.38 2.288-5.181l18.073-7.008c2.05-0.794 4.376 0.224 5.182 2.288 0.798 2.061-0.227 4.38-2.287 5.181l-18.074 7.008c-0.474 0.184-0.968 0.271-1.448 0.271z" fill="#305D8A"/>
 <line x1="1449.4" x2="1442.7" y1="1131" y2="1139.5" fill="#fff"/>
 <path d="m1442.7 1143.5c-0.871 0-1.748-0.282-2.482-0.869-1.732-1.372-2.025-3.891-0.649-5.623l6.727-8.478c1.372-1.732 3.891-2.029 5.623-0.649 1.732 1.373 2.024 3.891 0.648 5.623l-6.726 8.479c-0.791 0.996-1.96 1.517-3.141 1.517z" fill="#305D8A"/>
 <line x1="1464.2" x2="1460.2" y1="1124.1" y2="1143.5" fill="#fff"/>
 <path d="m1460.2 1147.5c-0.269 0-0.539-0.027-0.813-0.082-2.167-0.45-3.559-2.569-3.113-4.731l4.004-19.354c0.446-2.167 2.559-3.551 4.732-3.112 2.166 0.45 3.559 2.569 3.113 4.731l-4.005 19.353c-0.39 1.893-2.06 3.195-3.918 3.195z" fill="#305D8A"/>
 <line x1="1599.6" x2="1607.6" y1="1021.5" y2="998" fill="#fff"/>
 <path d="m1599.6 1025.5c-0.43 0-0.864-0.066-1.294-0.215-2.092-0.716-3.211-2.988-2.495-5.083l8.009-23.471c0.711-2.092 2.991-3.218 5.084-2.495 2.092 0.715 3.21 2.987 2.495 5.083l-8.01 23.47c-0.567 1.663-2.123 2.711-3.789 2.711z" fill="#305D8A"/>
 <line x1="1584.7" x2="1586" y1="1001.3" y2="991.68" fill="#fff"/>
 <path d="m1584.7 1005.3c-0.168 0-0.336-0.012-0.508-0.031-2.194-0.277-3.747-2.283-3.469-4.478l1.224-9.651c0.281-2.194 2.261-3.707 4.478-3.469 2.193 0.278 3.746 2.284 3.469 4.478l-1.224 9.651c-0.259 2.022-1.983 3.5-3.97 3.5z" fill="#305D8A"/>
 <line x1="1514.3" x2="1494.1" y1="1032.8" y2="1018.7" fill="#fff"/>
 <path d="m1514.3 1036.8c-0.79 0-1.584-0.23-2.284-0.715l-20.204-14.051c-1.815-1.263-2.265-3.757-1.001-5.575 1.258-1.819 3.749-2.269 5.575-1.002l20.205 14.05c1.814 1.264 2.265 3.759 1.001 5.577-0.778 1.118-2.025 1.716-3.292 1.716z" fill="#305D8A"/>
 <line x1="1546.8" x2="1550.8" y1="1e3" y2="987.99" fill="#fff"/>
 <path d="m1546.8 1004c-0.418 0-0.844-0.066-1.267-0.208-2.096-0.695-3.229-2.964-2.53-5.063l4.005-12.013c0.699-2.096 2.952-3.238 5.064-2.53 2.095 0.696 3.229 2.964 2.529 5.064l-4.005 12.013c-0.558 1.677-2.118 2.737-3.796 2.737z" fill="#305D8A"/>
 <line x1="1540.1" x2="1546.2" y1="1018.7" y2="1025.8" fill="#fff"/>
 <path d="m1546.2 1029.8c-1.121 0-2.236-0.47-3.029-1.384l-6.073-7.028c-1.447-1.673-1.259-4.203 0.41-5.65 1.67-1.442 4.196-1.263 5.65 0.411l6.073 7.027c1.446 1.673 1.26 4.203-0.41 5.65-0.759 0.654-1.689 0.974-2.621 0.974z" fill="#305D8A"/>
 <line x1="1564" x2="1561.4" y1="1016" y2="1036.8" fill="#fff"/>
 <path d="m1561.4 1040.8c-0.164 0-0.333-0.012-0.505-0.031-2.194-0.274-3.746-2.275-3.473-4.474l2.608-20.78c0.273-2.186 2.229-3.715 4.474-3.472 2.194 0.273 3.746 2.275 3.472 4.473l-2.607 20.78c-0.254 2.021-1.979 3.504-3.969 3.504z" fill="#305D8A"/>
 <line x1="1624.9" x2="1640.9" y1="1044.7" y2="1036.8" fill="#fff"/>
 <path d="m1624.9 1048.7c-1.478 0-2.897-0.817-3.594-2.229-0.981-1.982-0.168-4.384 1.814-5.365l16.018-7.915c1.994-0.981 4.392-0.168 5.364 1.814 0.982 1.982 0.169 4.385-1.813 5.366l-16.018 7.914c-0.571 0.282-1.177 0.415-1.771 0.415z" fill="#305D8A"/>
 <line x1="1634.9" x2="1646.9" y1="1056.1" y2="1056.1" fill="#fff"/>
 <path d="m1646.9 1060.1h-12.013c-2.214 0-4.004-1.791-4.004-4.005 0-2.213 1.79-4.004 4.004-4.004h12.013c2.214 0 4.004 1.791 4.004 4.004 0 2.214-1.79 4.005-4.004 4.005z" fill="#305D8A"/>
 <line x1="1468.8" x2="1484.8" y1="1074.1" y2="1086.8" fill="#fff"/>
 <path d="m1484.8 1090.8c-0.869 0-1.744-0.281-2.483-0.863l-16.018-12.678c-1.731-1.373-2.025-3.892-0.652-5.627 1.368-1.732 3.879-2.03 5.627-0.653l16.018 12.678c1.731 1.372 2.024 3.891 0.652 5.627-0.791 0.996-1.965 1.516-3.144 1.516z" fill="#305D8A"/>
 <line x1="1481.8" x2="1476.1" y1="1063.1" y2="1062.1" fill="#fff"/>
 <path d="m1481.8 1067.1c-0.239 0-0.478-0.021-0.721-0.063l-5.705-1.037c-2.174-0.398-3.62-2.482-3.226-4.657 0.395-2.178 2.471-3.605 4.657-3.226l5.705 1.036c2.175 0.398 3.621 2.483 3.227 4.657-0.352 1.937-2.038 3.29-3.937 3.29z" fill="#305D8A"/>
 <line x1="1500.8" x2="1515.9" y1="1050.2" y2="1062.1" fill="#fff"/>
 <path d="m1515.9 1066.1c-0.865 0-1.736-0.277-2.472-0.855l-15.106-11.873c-1.736-1.364-2.041-3.883-0.672-5.623 1.364-1.736 3.879-2.049 5.623-0.672l15.105 11.872c1.736 1.364 2.041 3.883 0.673 5.623-0.79 1.005-1.963 1.528-3.151 1.528z" fill="#305D8A"/>
 <line x1="1530.8" x2="1537" y1="1053.4" y2="1063.4" fill="#fff"/>
 <path d="m1537 1067.4c-1.346 0-2.655-0.677-3.414-1.9l-6.187-10.03c-1.157-1.885-0.574-4.353 1.307-5.514 1.885-1.161 4.349-0.571 5.514 1.306l6.187 10.03c1.157 1.885 0.574 4.353-1.307 5.514-0.658 0.402-1.385 0.594-2.1 0.594z" fill="#305D8A"/>
 <line x1="1603.7" x2="1615.3" y1="1112.1" y2="1099.4" fill="#fff"/>
 <path d="m1603.7 1116.1c-0.97 0-1.939-0.348-2.706-1.052-1.631-1.498-1.74-4.027-0.247-5.658l11.631-12.682c1.493-1.631 4.031-1.74 5.657-0.246 1.632 1.497 1.74 4.027 0.247 5.658l-11.63 12.682c-0.79 0.861-1.869 1.298-2.952 1.298z" fill="#305D8A"/>
 <line x1="1624.9" x2="1632.9" y1="1118.6" y2="1116.1" fill="#fff"/>
 <path d="m1624.9 1122.6c-1.705 0-3.285-1.096-3.82-2.812-0.661-2.108 0.517-4.357 2.628-5.014l8.008-2.503c2.104-0.672 4.353 0.513 5.014 2.628 0.661 2.107-0.517 4.356-2.628 5.013l-8.009 2.503c-0.395 0.126-0.798 0.185-1.193 0.185z" fill="#305D8A"/>
 <line x1="1636.4" x2="1659.8" y1="1092.9" y2="1089.8" fill="#fff"/>
 <path d="m1636.4 1096.9c-1.979 0-3.694-1.462-3.965-3.473-0.293-2.193 1.247-4.207 3.438-4.5l23.428-3.133c2.217-0.27 4.207 1.251 4.5 3.438 0.294 2.194-1.247 4.207-3.437 4.501l-23.428 3.132c-0.18 0.024-0.359 0.035-0.536 0.035z" fill="#305D8A"/>
 <line x1="1651.5" x2="1657" y1="1112.1" y2="1109.8" fill="#fff"/>
 <path d="m1651.5 1116.1c-1.549 0-3.022-0.903-3.676-2.416-0.876-2.03 0.059-4.388 2.089-5.264l5.415-2.339c2.038-0.875 4.392 0.063 5.264 2.089 0.876 2.028-0.059 4.387-2.088 5.263l-5.416 2.339c-0.517 0.224-1.056 0.328-1.588 0.328z" fill="#305D8A"/>
 <line x1="1490.3" x2="1474.8" y1="1143.5" y2="1156.2" fill="#fff"/>
 <path d="m1474.8 1160.2c-1.161 0-2.314-0.5-3.104-1.47-1.399-1.713-1.146-4.238 0.567-5.635l15.531-12.682c1.722-1.4 4.239-1.146 5.636 0.567 1.4 1.712 1.146 4.238-0.567 5.634l-15.531 12.682c-0.748 0.607-1.644 0.904-2.532 0.904z" fill="#305D8A"/>
 <line x1="1498.8" x2="1514.3" y1="1124.1" y2="1126.8" fill="#fff"/>
 <path d="m1514.3 1130.8c-0.224 0-0.454-0.02-0.681-0.058l-15.532-2.668c-2.182-0.371-3.645-2.443-3.27-4.621 0.372-2.179 2.441-3.637 4.623-3.27l15.532 2.667c2.182 0.372 3.645 2.444 3.269 4.622-0.331 1.952-2.025 3.328-3.941 3.328z" fill="#305D8A"/>
 <line x1="1508.3" x2="1523.5" y1="1153.5" y2="1143.5" fill="#fff"/>
 <path d="m1508.3 1157.5c-1.298 0-2.573-0.63-3.344-1.796-1.22-1.845-0.715-4.328 1.131-5.549l15.134-10.011c1.842-1.224 4.324-0.719 5.549 1.131 1.22 1.846 0.715 4.328-1.13 5.549l-15.134 10.011c-0.681 0.449-1.447 0.665-2.206 0.665z" fill="#305D8A"/>
 <line x1="1552.5" x2="1546.2" y1="1133.8" y2="1149.8" fill="#fff"/>
 <path d="m1546.2 1153.8c-0.492 0-0.989-0.09-1.474-0.281-2.057-0.813-3.062-3.141-2.249-5.197l6.34-16.017c0.817-2.058 3.155-3.059 5.196-2.248 2.057 0.813 3.063 3.14 2.249 5.196l-6.339 16.018c-0.621 1.572-2.131 2.529-3.723 2.529z" fill="#305D8A"/>
 <line x1="1567.5" x2="1571" y1="1148.5" y2="1156.2" fill="#fff"/>
 <path d="m1571 1160.2c-1.518 0-2.972-0.863-3.645-2.334l-3.52-7.677c-0.923-2.009-0.039-4.387 1.971-5.31 2.041-0.916 4.396-0.035 5.311 1.971l3.52 7.676c0.923 2.011 0.039 4.388-1.971 5.311-0.543 0.247-1.111 0.363-1.666 0.363z" fill="#305D8A"/>
 <line x1="1528.8" x2="1508.3" y1="1096" y2="1089.8" fill="#fff"/>
 <path d="m1528.8 1100c-0.388 0-0.782-0.055-1.174-0.176l-20.475-6.266c-2.111-0.645-3.305-2.886-2.655-5.001 0.646-2.115 2.875-3.315 5.002-2.655l20.475 6.265c2.111 0.646 3.305 2.886 2.655 5.002-0.528 1.724-2.111 2.831-3.828 2.831z" fill="#305D8A"/>
 <line x1="1578.9" x2="1582.2" y1="1117.4" y2="1109.8" fill="#fff"/>
 <path d="m1578.9 1121.4c-0.536 0-1.083-0.109-1.607-0.336-2.026-0.892-2.944-3.254-2.057-5.279l3.335-7.595c0.892-2.024 3.242-2.936 5.279-2.057 2.025 0.892 2.944 3.254 2.057 5.279l-3.336 7.595c-0.66 1.501-2.131 2.393-3.671 2.393z" fill="#305D8A"/>
 <line x1="1603.6" x2="1616.2" y1="1141.8" y2="1144.5" fill="#fff"/>
 <path d="m1616.2 1148.5c-0.272 0-0.551-0.026-0.829-0.085l-12.681-2.671c-2.162-0.458-3.552-2.581-3.093-4.744 0.457-2.162 2.596-3.554 4.743-3.092l12.682 2.67c2.161 0.458 3.551 2.581 3.093 4.743-0.399 1.885-2.06 3.179-3.915 3.179z" fill="#305D8A"/>
 <line x1="1446.7" x2="1683" y1="1220.2" y2="1220.2" fill="#fff"/>
 <path d="m1683 1224.2h-236.25c-2.213 0-4.005-1.791-4.005-4.005 0-2.213 1.792-4.004 4.005-4.004h236.25c2.213 0 4.004 1.791 4.004 4.004 0 2.214-1.791 4.005-4.004 4.005z" fill="#305D8A"/>
 <path d="m628.52 1281.3c0-30.298-24.476-54.863-54.727-55.051v-7.352c0-12.537-10.167-22.699-22.704-22.699h-90.737c-12.537 0-22.704 10.162-22.704 22.699v122.78c0 12.537 10.167 22.7 22.704 22.7h90.737c12.537 0 22.704-10.163 22.704-22.7v-5.326c30.252-0.187 54.727-24.753 54.727-55.05zm-54.726 31.025v-62.051c16.987 0.184 30.701 13.996 30.701 31.025s-13.714 30.842-30.701 31.026z" fill="#EAE8E1"/>
 <path d="m551.09 1368.4h-90.737c-14.727 0-26.708-11.979-26.708-26.705v-122.78c0-14.727 11.982-26.704 26.708-26.704h90.737c14.727 0 26.708 11.978 26.708 26.704v3.504c30.521 2.244 54.727 27.873 54.727 58.898s-24.206 56.654-54.727 58.899v1.478c0 14.727-11.981 26.706-26.708 26.706zm-90.737-168.18c-10.312 0-18.7 8.389-18.7 18.696v122.78c0 10.309 8.388 18.696 18.7 18.696h90.737c10.313 0 18.7-8.388 18.7-18.696v-5.326c0-2.201 1.779-3.988 3.98-4.004 27.979-0.172 50.746-23.072 50.746-51.047s-22.767-50.875-50.746-51.047c-2.202-0.015-3.98-1.803-3.98-4.004v-7.352c0-10.308-8.388-18.696-18.7-18.696h-90.737zm113.44 116.13c-1.056 0-2.064-0.414-2.815-1.157-0.762-0.751-1.188-1.774-1.188-2.847v-62.051c0-1.071 0.426-2.096 1.188-2.847 0.763-0.755 1.838-1.231 2.858-1.157 19.114 0.207 34.662 15.92 34.662 35.029 0 19.11-15.548 34.823-34.662 35.029-0.015 1e-3 -0.027 1e-3 -0.043 1e-3zm4.004-61.702v53.346c12.83-2.096 22.692-13.307 22.692-26.673s-9.862-24.577-22.692-26.673z" fill="#305D8A"/>
 <g opacity=".2">
  <path d="m573.8 1226.3v-7.352c0-12.537-10.167-22.699-22.704-22.699h-29.352v168.18h29.352c12.537 0 22.704-10.163 22.704-22.7v-5.326c30.251-0.188 54.727-24.753 54.727-55.051s-24.476-54.864-54.727-55.051zm0 86.076v-62.051c16.987 0.184 30.701 13.996 30.701 31.025s-13.714 30.842-30.701 31.026z" fill="#9DB6C9"/>
 </g>
 <line x1="461.68" x2="549.77" y1="1212.2" y2="1212.2" fill="#fff"/>
 <path d="m549.77 1216.2h-88.094c-2.213 0-4.004-1.791-4.004-4.005 0-2.213 1.791-4.004 4.004-4.004h88.094c2.213 0 4.005 1.791 4.005 4.004 0 2.214-1.792 4.005-4.005 4.005z" fill="#305D8A"/>
</svg>
